<?xml version="1.0" encoding="UTF-8"?>
<!DOCTYPE svg PUBLIC "-//W3C//DTD SVG 1.1//EN" "http://www.w3.org/Graphics/SVG/1.1/DTD/svg11.dtd">
<!-- Creator: CorelDRAW 2020 (64 Bit) -->
<svg xmlns="http://www.w3.org/2000/svg" xml:space="preserve" width="80px" height="80px" version="1.1" style="shape-rendering:geometricPrecision; text-rendering:geometricPrecision; image-rendering:optimizeQuality; fill-rule:evenodd; clip-rule:evenodd"
viewBox="0 0 80 80"
 xmlns:xlink="http://www.w3.org/1999/xlink"
 xmlns:xodm="http://www.corel.com/coreldraw/odm/2003">
 <defs>
  <style type="text/css">
   <![CDATA[
    .fil0 {fill:none}
    .fil2 {fill:#FEFEFE}
    .fil1 {fill:#00AC69;fill-rule:nonzero}
   ]]>
  </style>
 </defs>
 <g id="Camada_x0020_1">
  <metadata id="CorelCorpID_0Corel-Layer"/>
  <rect class="fil0" width="80" height="80"/>
  <g id="_2462572235808">
   <path class="fil1" d="M57.4 75l-34.81 0c-9.67,0 -17.59,-7.92 -17.59,-17.59l0 -34.82c0,-9.67 7.92,-17.59 17.59,-17.59l34.81 0c9.68,0 17.6,7.92 17.6,17.59l0 34.82c0,9.67 -7.92,17.59 -17.6,17.59z"/>
   <path class="fil2" d="M40.94 16.44c-12.94,0 -23.44,10.5 -23.44,23.45 0,4.43 1.23,8.57 3.36,12.11l-4.23 12.58 12.98 -4.16c3.36,1.86 7.22,2.92 11.33,2.92 12.96,0 23.46,-10.5 23.46,-23.45 0,-12.95 -10.5,-23.45 -23.46,-23.45l0 0zm0 42.97c-3.96,0 -7.65,-1.19 -10.73,-3.23l-7.51 2.4 2.44 -7.25c-2.33,-3.21 -3.71,-7.17 -3.71,-11.44 0,-10.77 8.75,-19.52 19.51,-19.52 10.77,0 19.53,8.75 19.53,19.52 0,10.76 -8.76,19.52 -19.53,19.52l0 0zm11 -14.19c-0.59,-0.33 -3.47,-1.88 -4.02,-2.1 -0.54,-0.22 -0.93,-0.34 -1.36,0.25 -0.42,0.58 -1.61,1.88 -1.98,2.27 -0.36,0.39 -0.71,0.43 -1.3,0.1 -0.59,-0.32 -2.49,-1.02 -4.7,-3.15 -1.72,-1.65 -2.85,-3.66 -3.18,-4.27 -0.33,-0.61 0,-0.92 0.31,-1.21 0.28,-0.26 0.63,-0.68 0.94,-1.02 0.31,-0.33 0.42,-0.58 0.63,-0.97 0.22,-0.39 0.13,-0.75 -0.01,-1.05 -0.14,-0.31 -1.22,-3.3 -1.67,-4.51 -0.46,-1.22 -0.96,-1.04 -1.31,-1.05 -0.35,-0.02 -0.75,-0.08 -1.15,-0.1 -0.4,-0.01 -1.05,0.12 -1.62,0.69 -0.57,0.58 -2.18,1.97 -2.28,4.92 -0.12,2.94 1.92,5.87 2.21,6.28 0.28,0.41 3.89,6.8 9.88,9.42 6,2.63 6.03,1.82 7.13,1.77 1.1,-0.06 3.59,-1.32 4.14,-2.7 0.56,-1.38 0.6,-2.58 0.46,-2.83 -0.14,-0.26 -0.53,-0.42 -1.12,-0.74l0 0z"/>
  </g>
 </g>
</svg>
